<svg width="137" height="40" viewBox="0 0 137 40" fill="none" xmlns="http://www.w3.org/2000/svg">
<path d="M15.48 22.288C14.856 26.008 12.48 28.384 8.76 28.384C3.984 28.384 1.176 24.616 1.176 19.504C1.176 14.368 3.984 10.576 8.76 10.576C12.216 10.576 14.592 12.784 15.336 16.288L13.608 16.408C13.056 13.744 11.256 12.184 8.76 12.184C4.824 12.184 2.904 15.376 2.904 19.504C2.904 23.608 4.848 26.776 8.76 26.776C11.376 26.776 13.224 25.144 13.728 22.168L15.48 22.288ZM23.1469 28.288C19.6909 28.288 17.4589 25.696 17.4589 21.64C17.4589 17.584 19.6909 14.992 23.1469 14.992C26.5789 14.992 28.8109 17.584 28.8109 21.64C28.8109 25.696 26.5789 28.288 23.1469 28.288ZM19.1149 21.64C19.1149 24.832 20.6269 26.776 23.1469 26.776C25.6429 26.776 27.1549 24.832 27.1549 21.64C27.1549 18.448 25.6429 16.504 23.1469 16.504C20.6269 16.504 19.1149 18.448 19.1149 21.64ZM31.6286 31.6V15.28H33.0206L33.0926 17.584C33.8366 15.952 35.3246 14.992 37.1966 14.992C40.8206 14.992 42.6446 17.944 42.6446 21.64C42.6446 25.312 40.8206 28.264 37.1966 28.264C35.3966 28.264 33.9086 27.352 33.2126 25.864V31.6H31.6286ZM33.0446 21.64C33.0446 24.328 34.4126 26.752 36.9806 26.752C39.6446 26.752 40.9406 24.448 40.9406 21.64C40.9406 18.808 39.6446 16.504 36.9806 16.504C34.4126 16.504 33.0446 18.952 33.0446 21.64ZM43.4961 15.28H45.1761L49.3281 26.32L53.2881 15.28H54.9681L49.7361 29.608C49.2321 30.976 48.3681 31.6 46.9041 31.6H45.4881V30.208H46.7841C47.6241 30.208 48.0081 29.872 48.3921 28.936L48.8481 27.76H48.2721L43.4961 15.28ZM57.2346 15.28H58.5786L58.6746 17.8C59.1786 16.12 60.1866 15.28 61.8666 15.28H62.9706V16.672H61.8666C59.8746 16.672 58.8186 18.112 58.8186 20.416V28H57.2346V15.28ZM65.8539 15.28H67.4379V28H65.8539V15.28ZM65.8059 13.264V11.176H67.4859V13.264H65.8059ZM75.8492 27.352C72.5612 27.352 70.3292 24.856 70.3292 21.16C70.3292 17.488 72.5372 15.016 75.8252 15.016C77.6252 15.016 79.2092 16.072 79.8092 17.656V15.28H81.3212V26.704C81.3212 30.04 79.1372 31.888 75.9212 31.888C73.2092 31.888 71.1692 30.376 70.7852 28.168L72.4412 28.072C72.8252 29.464 74.0972 30.376 75.9212 30.376C78.2732 30.376 79.7372 29.152 79.7372 27.016V24.808C79.0652 26.344 77.5292 27.352 75.8492 27.352ZM71.9852 21.16C71.9852 24.04 73.4972 25.84 75.9212 25.84C78.2252 25.84 79.7612 23.992 79.7852 21.16C79.8092 18.352 78.2732 16.528 75.9212 16.528C73.4972 16.528 71.9852 18.304 71.9852 21.16ZM84.7099 10.96H86.2939V17.272C86.9659 15.688 88.5499 14.992 90.2779 14.992C92.9419 14.992 94.5259 16.96 94.5259 19.816V28H92.9419V20.488C92.9419 17.944 92.0059 16.504 89.9179 16.504C87.6859 16.504 86.2939 18.016 86.2939 20.488V28H84.7099V10.96ZM99.0806 12.4H100.665V15.28H103.953V16.696H100.665V24.88C100.665 26.008 101.193 26.608 102.249 26.608H103.905V28H102.249C100.233 28 99.0806 26.848 99.0806 24.88V16.696H97.0886V15.28H99.0806V12.4Z" fill="white" fill-opacity="0.6"/>
<path fill-rule="evenodd" clip-rule="evenodd" d="M135 20C135 25.5228 130.523 30 125 30C119.477 30 115 25.5228 115 20C115 14.4772 119.477 10 125 10C130.523 10 135 14.4772 135 20ZM137 20C137 26.6274 131.627 32 125 32C118.373 32 113 26.6274 113 20C113 13.3726 118.373 8 125 8C131.627 8 137 13.3726 137 20ZM126.59 13.3627C125.269 12.8874 123.84 12.879 122.514 13.339C121.189 13.7985 120.048 14.6966 119.243 15.8873C118.439 17.0772 118.007 18.5038 118 19.9628C117.993 21.4219 118.41 22.8531 119.202 24.0518C119.995 25.2515 121.127 26.1625 122.446 26.6373C123.768 27.1126 125.197 27.121 126.523 26.661C127.848 26.2015 128.989 25.3034 129.794 24.1127C130.103 23.6551 129.983 23.0334 129.525 22.7242C129.067 22.4149 128.446 22.5352 128.137 22.9928C127.561 23.8442 126.763 24.4608 125.868 24.7714C124.973 25.0815 124.015 25.076 123.123 24.7553C122.23 24.4341 121.438 23.8079 120.871 22.9493C120.303 22.0899 119.995 21.0478 120 19.9727C120.005 18.8976 120.324 17.8595 120.9 17.0072C121.475 16.1558 122.273 15.5392 123.169 15.2286C124.063 14.9185 125.022 14.924 125.913 15.2447C126.806 15.5659 127.598 16.1921 128.166 17.0507C128.47 17.5114 129.09 17.6382 129.551 17.3338C130.012 17.0293 130.139 16.409 129.834 15.9482C129.042 14.7485 127.91 13.8375 126.59 13.3627Z" fill="white" fill-opacity="0.6"/>
</svg>
